<mxfile host="app.diagrams.net" modified="2023-05-07T17:02:57.698Z" agent="Mozilla/5.0 (Windows NT 10.0; Win64; x64) AppleWebKit/537.36 (KHTML, like Gecko) Chrome/113.0.0.0 Safari/537.36" etag="kKKhF8nrGDML0lLCi89z" version="21.2.9" type="device">
  <diagram id="R2lEEEUBdFMjLlhIrx00" name="Page-1">
    <mxGraphModel dx="1886" dy="788" grid="1" gridSize="10" guides="1" tooltips="1" connect="1" arrows="1" fold="1" page="1" pageScale="1" pageWidth="850" pageHeight="1100" math="0" shadow="0" extFonts="Permanent Marker^https://fonts.googleapis.com/css?family=Permanent+Marker">
      <root>
        <mxCell id="0" />
        <mxCell id="1" parent="0" />
        <mxCell id="pxEFc5EetHY0ITnfb9KD-1" value="Flora" style="swimlane;childLayout=stackLayout;horizontal=1;startSize=50;horizontalStack=0;rounded=1;fontSize=14;fontStyle=0;strokeWidth=2;resizeParent=0;resizeLast=1;shadow=0;dashed=0;align=center;arcSize=4;whiteSpace=wrap;html=1;" parent="1" vertex="1">
          <mxGeometry x="75" y="305" width="160" height="105" as="geometry" />
        </mxCell>
        <mxCell id="pxEFc5EetHY0ITnfb9KD-2" value="+Id_Flora(PK)&lt;br&gt;+Flora_tipo&lt;br&gt;+Id_Parco(FK)" style="align=left;strokeColor=none;fillColor=none;spacingLeft=4;fontSize=12;verticalAlign=top;resizable=0;rotatable=0;part=1;html=1;" parent="pxEFc5EetHY0ITnfb9KD-1" vertex="1">
          <mxGeometry y="50" width="160" height="55" as="geometry" />
        </mxCell>
        <mxCell id="pxEFc5EetHY0ITnfb9KD-10" value="Parco" style="swimlane;childLayout=stackLayout;horizontal=1;startSize=50;horizontalStack=0;rounded=1;fontSize=14;fontStyle=0;strokeWidth=2;resizeParent=0;resizeLast=1;shadow=0;dashed=0;align=center;arcSize=4;whiteSpace=wrap;html=1;" parent="1" vertex="1">
          <mxGeometry x="345" y="40" width="160" height="110" as="geometry" />
        </mxCell>
        <mxCell id="pxEFc5EetHY0ITnfb9KD-11" value="+ID_Parco(PK)&lt;br&gt;+Nome&lt;br&gt;+Regione" style="align=left;strokeColor=none;fillColor=none;spacingLeft=4;fontSize=12;verticalAlign=top;resizable=0;rotatable=0;part=1;html=1;" parent="pxEFc5EetHY0ITnfb9KD-10" vertex="1">
          <mxGeometry y="50" width="160" height="60" as="geometry" />
        </mxCell>
        <mxCell id="pxEFc5EetHY0ITnfb9KD-30" value="" style="endArrow=classic;startArrow=classic;html=1;rounded=0;entryX=0;entryY=0.5;entryDx=0;entryDy=0;" parent="1" source="pxEFc5EetHY0ITnfb9KD-29" target="pxEFc5EetHY0ITnfb9KD-10" edge="1">
          <mxGeometry width="50" height="50" relative="1" as="geometry">
            <mxPoint x="220" y="180" as="sourcePoint" />
            <mxPoint x="410" y="230" as="targetPoint" />
            <Array as="points" />
          </mxGeometry>
        </mxCell>
        <mxCell id="9YJfejQeJp6qn4BpDlvE-50" value="(1,1)" style="edgeLabel;html=1;align=center;verticalAlign=middle;resizable=0;points=[];" vertex="1" connectable="0" parent="pxEFc5EetHY0ITnfb9KD-30">
          <mxGeometry x="0.3652" y="-1" relative="1" as="geometry">
            <mxPoint x="8" as="offset" />
          </mxGeometry>
        </mxCell>
        <mxCell id="pxEFc5EetHY0ITnfb9KD-45" value="" style="endArrow=classic;startArrow=classic;html=1;rounded=0;exitX=0.5;exitY=0;exitDx=0;exitDy=0;entryX=0.5;entryY=1;entryDx=0;entryDy=0;" parent="1" source="pxEFc5EetHY0ITnfb9KD-1" target="pxEFc5EetHY0ITnfb9KD-29" edge="1">
          <mxGeometry width="50" height="50" relative="1" as="geometry">
            <mxPoint x="200" y="320" as="sourcePoint" />
            <mxPoint x="180" y="300" as="targetPoint" />
          </mxGeometry>
        </mxCell>
        <mxCell id="9YJfejQeJp6qn4BpDlvE-52" value="(1,1)" style="edgeLabel;html=1;align=center;verticalAlign=middle;resizable=0;points=[];" vertex="1" connectable="0" parent="pxEFc5EetHY0ITnfb9KD-45">
          <mxGeometry x="-0.5871" y="1" relative="1" as="geometry">
            <mxPoint as="offset" />
          </mxGeometry>
        </mxCell>
        <mxCell id="9YJfejQeJp6qn4BpDlvE-6" value="Specie" style="swimlane;childLayout=stackLayout;horizontal=1;startSize=50;horizontalStack=0;rounded=1;fontSize=14;fontStyle=0;strokeWidth=2;resizeParent=0;resizeLast=1;shadow=0;dashed=0;align=center;arcSize=4;whiteSpace=wrap;html=1;" vertex="1" parent="1">
          <mxGeometry x="611.25" y="260" width="150" height="190" as="geometry">
            <mxRectangle x="620" y="560" width="80" height="50" as="alternateBounds" />
          </mxGeometry>
        </mxCell>
        <mxCell id="9YJfejQeJp6qn4BpDlvE-7" value="+Id_Specie(PK)&lt;br&gt;+Nome&lt;br&gt;+Inizio_Monitoraggio&lt;br&gt;+Fine_Monitoraggio&lt;br&gt;+N_Cuccioli_Maschio&lt;br style=&quot;border-color: var(--border-color);&quot;&gt;+N_Adulti_Maschio&lt;br style=&quot;border-color: var(--border-color);&quot;&gt;+N_Cuccioli_Femmine&lt;br style=&quot;border-color: var(--border-color);&quot;&gt;+N_Adulti_Femmine&lt;br&gt;+ID_Parco(FK)" style="align=left;strokeColor=none;fillColor=none;spacingLeft=4;fontSize=12;verticalAlign=top;resizable=0;rotatable=0;part=1;html=1;" vertex="1" parent="9YJfejQeJp6qn4BpDlvE-6">
          <mxGeometry y="50" width="150" height="140" as="geometry" />
        </mxCell>
        <mxCell id="9YJfejQeJp6qn4BpDlvE-9" value="Appartiene" style="rhombus;whiteSpace=wrap;html=1;fontSize=14;fontStyle=0;startSize=50;rounded=1;strokeWidth=2;shadow=0;dashed=0;arcSize=4;" vertex="1" parent="1">
          <mxGeometry x="633.75" y="510" width="105" height="80" as="geometry" />
        </mxCell>
        <mxCell id="9YJfejQeJp6qn4BpDlvE-10" value="Esemplare" style="swimlane;childLayout=stackLayout;horizontal=1;startSize=50;horizontalStack=0;rounded=1;fontSize=14;fontStyle=0;strokeWidth=2;resizeParent=0;resizeLast=1;shadow=0;dashed=0;align=center;arcSize=4;whiteSpace=wrap;html=1;" vertex="1" parent="1">
          <mxGeometry x="601.25" y="640" width="170" height="140" as="geometry">
            <mxRectangle x="610" y="950" width="110" height="50" as="alternateBounds" />
          </mxGeometry>
        </mxCell>
        <mxCell id="9YJfejQeJp6qn4BpDlvE-11" value="+iD_Esemplare(PK)&lt;br style=&quot;border-color: var(--border-color);&quot;&gt;+Nome&lt;br&gt;+Data_Nascita&lt;br&gt;+Data_morte&lt;br&gt;+ID_Specie(FK)" style="align=left;strokeColor=none;fillColor=none;spacingLeft=4;fontSize=12;verticalAlign=top;resizable=0;rotatable=0;part=1;html=1;" vertex="1" parent="9YJfejQeJp6qn4BpDlvE-10">
          <mxGeometry y="50" width="170" height="90" as="geometry" />
        </mxCell>
        <mxCell id="9YJfejQeJp6qn4BpDlvE-13" value="Possiede" style="shape=rhombus;perimeter=rhombusPerimeter;whiteSpace=wrap;html=1;align=center;" vertex="1" parent="1">
          <mxGeometry x="626.25" y="150" width="120" height="60" as="geometry" />
        </mxCell>
        <mxCell id="9YJfejQeJp6qn4BpDlvE-20" value="" style="endArrow=classic;startArrow=classic;html=1;rounded=0;entryX=0.5;entryY=1;entryDx=0;entryDy=0;exitX=0.5;exitY=0;exitDx=0;exitDy=0;" edge="1" parent="1" source="9YJfejQeJp6qn4BpDlvE-6" target="9YJfejQeJp6qn4BpDlvE-13">
          <mxGeometry width="50" height="50" relative="1" as="geometry">
            <mxPoint x="410" y="635" as="sourcePoint" />
            <mxPoint x="540" y="535" as="targetPoint" />
          </mxGeometry>
        </mxCell>
        <mxCell id="9YJfejQeJp6qn4BpDlvE-30" value="(1,1)" style="edgeLabel;html=1;align=center;verticalAlign=middle;resizable=0;points=[];" vertex="1" connectable="0" parent="9YJfejQeJp6qn4BpDlvE-20">
          <mxGeometry x="-0.3429" y="-1" relative="1" as="geometry">
            <mxPoint as="offset" />
          </mxGeometry>
        </mxCell>
        <mxCell id="9YJfejQeJp6qn4BpDlvE-26" value="" style="endArrow=classic;startArrow=classic;html=1;rounded=0;entryX=0.5;entryY=1;entryDx=0;entryDy=0;exitX=0.5;exitY=0;exitDx=0;exitDy=0;" edge="1" parent="1" source="9YJfejQeJp6qn4BpDlvE-9" target="9YJfejQeJp6qn4BpDlvE-7">
          <mxGeometry width="50" height="50" relative="1" as="geometry">
            <mxPoint x="705" y="615" as="sourcePoint" />
            <mxPoint x="705" y="545" as="targetPoint" />
          </mxGeometry>
        </mxCell>
        <mxCell id="9YJfejQeJp6qn4BpDlvE-31" value="(1,n)" style="edgeLabel;html=1;align=center;verticalAlign=middle;resizable=0;points=[];" vertex="1" connectable="0" parent="9YJfejQeJp6qn4BpDlvE-26">
          <mxGeometry x="0.3846" y="-2" relative="1" as="geometry">
            <mxPoint as="offset" />
          </mxGeometry>
        </mxCell>
        <mxCell id="9YJfejQeJp6qn4BpDlvE-27" value="" style="endArrow=classic;startArrow=classic;html=1;rounded=0;entryX=0.5;entryY=0;entryDx=0;entryDy=0;exitX=0.5;exitY=1;exitDx=0;exitDy=0;" edge="1" parent="1" source="9YJfejQeJp6qn4BpDlvE-9" target="9YJfejQeJp6qn4BpDlvE-10">
          <mxGeometry width="50" height="50" relative="1" as="geometry">
            <mxPoint x="694.75" y="890" as="sourcePoint" />
            <mxPoint x="696" y="930" as="targetPoint" />
          </mxGeometry>
        </mxCell>
        <mxCell id="9YJfejQeJp6qn4BpDlvE-32" value="(1,1)" style="edgeLabel;html=1;align=center;verticalAlign=middle;resizable=0;points=[];" vertex="1" connectable="0" parent="9YJfejQeJp6qn4BpDlvE-27">
          <mxGeometry x="0.5" y="2" relative="1" as="geometry">
            <mxPoint x="-3" y="-15" as="offset" />
          </mxGeometry>
        </mxCell>
        <mxCell id="9YJfejQeJp6qn4BpDlvE-44" value="Peculiarità" style="swimlane;childLayout=stackLayout;horizontal=1;startSize=50;horizontalStack=0;rounded=1;fontSize=14;fontStyle=0;strokeWidth=2;resizeParent=0;resizeLast=1;shadow=0;dashed=0;align=center;arcSize=4;whiteSpace=wrap;html=1;" vertex="1" parent="1">
          <mxGeometry x="75" y="620" width="160" height="140" as="geometry" />
        </mxCell>
        <mxCell id="9YJfejQeJp6qn4BpDlvE-45" value="+Id_Peculiarità(PK)&lt;br&gt;+Specie&lt;br&gt;+Nome&lt;br&gt;+Stagione di Fioritura&lt;br&gt;+ID_Flora(FK)" style="align=left;strokeColor=none;fillColor=none;spacingLeft=4;fontSize=12;verticalAlign=top;resizable=0;rotatable=0;part=1;html=1;" vertex="1" parent="9YJfejQeJp6qn4BpDlvE-44">
          <mxGeometry y="50" width="160" height="90" as="geometry" />
        </mxCell>
        <mxCell id="pxEFc5EetHY0ITnfb9KD-29" value="Cresce" style="shape=rhombus;perimeter=rhombusPerimeter;whiteSpace=wrap;html=1;align=center;" parent="1" vertex="1">
          <mxGeometry x="95" y="155" width="120" height="50" as="geometry" />
        </mxCell>
        <mxCell id="9YJfejQeJp6qn4BpDlvE-53" value="Caratterizzata" style="rhombus;whiteSpace=wrap;html=1;fontSize=14;fontStyle=0;startSize=50;rounded=1;strokeWidth=2;shadow=0;dashed=0;arcSize=4;" vertex="1" parent="1">
          <mxGeometry x="102.5" y="470" width="105" height="80" as="geometry" />
        </mxCell>
        <mxCell id="9YJfejQeJp6qn4BpDlvE-54" value="" style="endArrow=classic;startArrow=classic;html=1;rounded=0;entryX=0.5;entryY=1;entryDx=0;entryDy=0;exitX=0.5;exitY=0;exitDx=0;exitDy=0;" edge="1" parent="1" source="9YJfejQeJp6qn4BpDlvE-53" target="pxEFc5EetHY0ITnfb9KD-2">
          <mxGeometry width="50" height="50" relative="1" as="geometry">
            <mxPoint x="154.5" y="510" as="sourcePoint" />
            <mxPoint x="154.5" y="450" as="targetPoint" />
          </mxGeometry>
        </mxCell>
        <mxCell id="9YJfejQeJp6qn4BpDlvE-55" value="(1,n)" style="edgeLabel;html=1;align=center;verticalAlign=middle;resizable=0;points=[];" vertex="1" connectable="0" parent="9YJfejQeJp6qn4BpDlvE-54">
          <mxGeometry x="0.3846" y="-2" relative="1" as="geometry">
            <mxPoint as="offset" />
          </mxGeometry>
        </mxCell>
        <mxCell id="9YJfejQeJp6qn4BpDlvE-56" value="" style="endArrow=classic;startArrow=classic;html=1;rounded=0;entryX=0.5;entryY=0;entryDx=0;entryDy=0;exitX=0.5;exitY=1;exitDx=0;exitDy=0;" edge="1" parent="1" source="9YJfejQeJp6qn4BpDlvE-53" target="9YJfejQeJp6qn4BpDlvE-44">
          <mxGeometry width="50" height="50" relative="1" as="geometry">
            <mxPoint x="150" y="590" as="sourcePoint" />
            <mxPoint x="150" y="640" as="targetPoint" />
          </mxGeometry>
        </mxCell>
        <mxCell id="9YJfejQeJp6qn4BpDlvE-57" value="(1,1)" style="edgeLabel;html=1;align=center;verticalAlign=middle;resizable=0;points=[];" vertex="1" connectable="0" parent="9YJfejQeJp6qn4BpDlvE-56">
          <mxGeometry x="0.5" y="2" relative="1" as="geometry">
            <mxPoint x="-2" y="-13" as="offset" />
          </mxGeometry>
        </mxCell>
        <mxCell id="9YJfejQeJp6qn4BpDlvE-58" value="" style="endArrow=classic;startArrow=classic;html=1;rounded=0;entryX=1;entryY=0.25;entryDx=0;entryDy=0;" edge="1" parent="1" source="9YJfejQeJp6qn4BpDlvE-13" target="pxEFc5EetHY0ITnfb9KD-11">
          <mxGeometry width="50" height="50" relative="1" as="geometry">
            <mxPoint x="195" y="177" as="sourcePoint" />
            <mxPoint x="355" y="110" as="targetPoint" />
            <Array as="points" />
          </mxGeometry>
        </mxCell>
        <mxCell id="9YJfejQeJp6qn4BpDlvE-59" value="(1,1)" style="edgeLabel;html=1;align=center;verticalAlign=middle;resizable=0;points=[];" vertex="1" connectable="0" parent="9YJfejQeJp6qn4BpDlvE-58">
          <mxGeometry x="0.3652" y="-1" relative="1" as="geometry">
            <mxPoint x="8" as="offset" />
          </mxGeometry>
        </mxCell>
        <mxCell id="9YJfejQeJp6qn4BpDlvE-60" value="Guardiano" style="swimlane;childLayout=stackLayout;horizontal=1;startSize=50;horizontalStack=0;rounded=1;fontSize=14;fontStyle=0;strokeWidth=2;resizeParent=0;resizeLast=1;shadow=0;dashed=0;align=center;arcSize=4;whiteSpace=wrap;html=1;" vertex="1" parent="1">
          <mxGeometry x="345" y="345" width="165" height="135" as="geometry" />
        </mxCell>
        <mxCell id="9YJfejQeJp6qn4BpDlvE-61" value="+C_F(PK)&lt;br&gt;+nome&lt;br&gt;+cognome&lt;br&gt;+Password&lt;br&gt;+Id_Parco(FK)" style="align=left;strokeColor=none;fillColor=none;spacingLeft=4;fontSize=12;verticalAlign=top;resizable=0;rotatable=0;part=1;html=1;" vertex="1" parent="9YJfejQeJp6qn4BpDlvE-60">
          <mxGeometry y="50" width="165" height="85" as="geometry" />
        </mxCell>
        <mxCell id="9YJfejQeJp6qn4BpDlvE-62" value="Controlla" style="shape=rhombus;perimeter=rhombusPerimeter;whiteSpace=wrap;html=1;align=center;" vertex="1" parent="1">
          <mxGeometry x="365" y="220" width="120" height="50" as="geometry" />
        </mxCell>
        <mxCell id="9YJfejQeJp6qn4BpDlvE-65" value="" style="endArrow=classic;startArrow=classic;html=1;rounded=0;entryX=0.5;entryY=1;entryDx=0;entryDy=0;exitX=0.5;exitY=0;exitDx=0;exitDy=0;" edge="1" parent="1" source="9YJfejQeJp6qn4BpDlvE-62" target="pxEFc5EetHY0ITnfb9KD-11">
          <mxGeometry width="50" height="50" relative="1" as="geometry">
            <mxPoint x="195" y="177" as="sourcePoint" />
            <mxPoint x="355" y="110" as="targetPoint" />
            <Array as="points" />
          </mxGeometry>
        </mxCell>
        <mxCell id="9YJfejQeJp6qn4BpDlvE-66" value="(1,n)" style="edgeLabel;html=1;align=center;verticalAlign=middle;resizable=0;points=[];" vertex="1" connectable="0" parent="9YJfejQeJp6qn4BpDlvE-65">
          <mxGeometry x="0.3652" y="-1" relative="1" as="geometry">
            <mxPoint x="8" as="offset" />
          </mxGeometry>
        </mxCell>
        <mxCell id="9YJfejQeJp6qn4BpDlvE-67" value="" style="endArrow=classic;startArrow=classic;html=1;rounded=0;entryX=0.5;entryY=1;entryDx=0;entryDy=0;exitX=0.5;exitY=0;exitDx=0;exitDy=0;" edge="1" parent="1" source="9YJfejQeJp6qn4BpDlvE-60" target="9YJfejQeJp6qn4BpDlvE-62">
          <mxGeometry width="50" height="50" relative="1" as="geometry">
            <mxPoint x="435" y="230" as="sourcePoint" />
            <mxPoint x="435" y="170" as="targetPoint" />
            <Array as="points" />
          </mxGeometry>
        </mxCell>
        <mxCell id="9YJfejQeJp6qn4BpDlvE-68" value="(1,1)" style="edgeLabel;html=1;align=center;verticalAlign=middle;resizable=0;points=[];" vertex="1" connectable="0" parent="9YJfejQeJp6qn4BpDlvE-67">
          <mxGeometry x="0.3652" y="-1" relative="1" as="geometry">
            <mxPoint x="8" y="26" as="offset" />
          </mxGeometry>
        </mxCell>
      </root>
    </mxGraphModel>
  </diagram>
</mxfile>
